{
    "frames": [
        { "pkt_pts_time": "0.043021" },
        { "pkt_pts_time": "3.796354" },
        { "pkt_pts_time": "7.551354" },
        { "pkt_pts_time": "11.304688" },
        { "pkt_pts_time": "15.058021" },
        { "pkt_pts_time": "18.811354" },
        { "pkt_pts_time": "21.898021" },
        { "pkt_pts_time": "25.026354" },
        { "pkt_pts_time": "25.526354" },
        { "pkt_pts_time": "25.609688" },
        { "pkt_pts_time": "25.859688" },
        { "pkt_pts_time": "29.614688" },
        { "pkt_pts_time": "33.368021" },
        { "pkt_pts_time": "37.121354" },
        { "pkt_pts_time": "39.164687" },
        { "pkt_pts_time": "41.209688" },
        { "pkt_pts_time": "41.293021" },
        { "pkt_pts_time": "42.084688" },
        { "pkt_pts_time": "43.586354" },
        { "pkt_pts_time": "45.796354" },
        { "pkt_pts_time": "49.551354" },
        { "pkt_pts_time": "53.304688" },
        { "pkt_pts_time": "57.058021" },
        { "pkt_pts_time": "60.811354" },
        { "pkt_pts_time": "64.566354" },
        { "pkt_pts_time": "68.319688" },
        { "pkt_pts_time": "72.073021" },
        { "pkt_pts_time": "75.826354" },
        { "pkt_pts_time": "79.581354" },
        { "pkt_pts_time": "83.334688" },
        { "pkt_pts_time": "87.088021" },
        { "pkt_pts_time": "90.841354" },
        { "pkt_pts_time": "92.928021" },
        { "pkt_pts_time": "93.261354" },
        { "pkt_pts_time": "93.469688" },
        { "pkt_pts_time": "94.053021" },
        { "pkt_pts_time": "97.181354" },
        { "pkt_pts_time": "100.934688" },
        { "pkt_pts_time": "103.646354" },
        { "pkt_pts_time": "104.731354" },
        { "pkt_pts_time": "106.399688" },
        { "pkt_pts_time": "109.944688" },
        { "pkt_pts_time": "113.698021" },
        { "pkt_pts_time": "117.451354" },
        { "pkt_pts_time": "121.206354" },
        { "pkt_pts_time": "124.959688" },
        { "pkt_pts_time": "128.713021" },
        { "pkt_pts_time": "132.049688" },
        { "pkt_pts_time": "135.428021" },
        { "pkt_pts_time": "139.181354" },
        { "pkt_pts_time": "142.018021" },
        { "pkt_pts_time": "145.021354" },
        { "pkt_pts_time": "147.064688" },
        { "pkt_pts_time": "149.149687" },
        { "pkt_pts_time": "151.194688" },
        { "pkt_pts_time": "153.238021" },
        { "pkt_pts_time": "153.988021" },
        { "pkt_pts_time": "154.781354" },
        { "pkt_pts_time": "155.656354" },
        { "pkt_pts_time": "156.533021" },
        { "pkt_pts_time": "158.951354" },
        { "pkt_pts_time": "160.869687" },
        { "pkt_pts_time": "162.246354" },
        { "pkt_pts_time": "163.623021" },
        { "pkt_pts_time": "167.043021" },
        { "pkt_pts_time": "170.504688" },
        { "pkt_pts_time": "172.381354" },
        { "pkt_pts_time": "174.634688" },
        { "pkt_pts_time": "176.886354" }
    ]
}
